# xmcd
#
# Track frame offsets: 
#        150
#        21286
#        39640
#        55586
#        76044
#        98828
#        117064
#        135143
#        152201
#
# Disc length: 2273 seconds
#
# Revision: 1
# Processed by: cddbd v1.5.2PL0 Copyright (c) Steve Scherf et al.
# Submitted via: ExactAudioCopy v0.99pb5
#
DISCID=5e08df09
DTITLE=Ivan Caceres - Bongolandia Roots of Acid Salsa
DYEAR=2004
DGENRE=Salsa
TTITLE0=Campana Mayoral
TTITLE1=Vous Le Vous Dancer
TTITLE2=No Pare El Carnaval
TTITLE3=Esclavo De Amor
TTITLE4=Medley La Flamboyan
TTITLE5=Changui Compay
TTITLE6=Merecumbe
TTITLE7=Ni Pito Ni Flauta
TTITLE8=Okere
EXTD=YEAR: 2004
EXTT0=
EXTT1=
EXTT2=
EXTT3=
EXTT4=
EXTT5=
EXTT6=
EXTT7=
EXTT8=
PLAYORDER=
